{"title":"If.a.Tree.Falls-A.Story.of.the.Earth.Liberation.Front.2011.DVDRi","uid":6903569,"size":734199962,"categoryP":"video","categoryS":"movies","magnet":"?xt=urn:btih:e4506326b782dbef2cb51c7d67b2c3baa05d92c5&amp;dn=If.a.Tree.Falls-A.Story.of.the.Earth.Liberation.Front.2011.DVDRi&amp;tr=udp%3A%2F%2Ftracker.openbittorrent.com%3A80&amp;tr=udp%3A%2F%2Fopen.demonii.com%3A1337&amp;tr=udp%3A%2F%2Ftracker.coppersurfer.tk%3A6969&amp;tr=udp%3A%2F%2Fexodus.desync.com%3A6969","seeders":2,"leechers":0,"uploader":"-trueevil-","files":1,"time":1324491016,"description":" &lt;a href=&quot;http://www.imdb.com/title/tt1787725/&quot; rel=&quot;nofollow&quot; target=&quot;_NEW&quot;&gt;http://www.imdb.com/title/tt1787725/&lt;/a&gt;\n\n-\n\nVideo\nID                               : 0\nFormat                           : MPEG-4 Visual\nFormat profile                   : Simple@L3\nFormat settings, BVOP            : No\nFormat settings, QPel            : No\nFormat settings, GMC             : No warppoints\nFormat settings, Matrix          : Default (H.263)\nCodec ID                         : XVID\nCodec ID/Hint                    : XviD\nDuration                         : 1h 25mn\nBit rate                         : 969 Kbps\nWidth                            : 640 pixels\nHeight                           : 352 pixels\nDisplay aspect ratio             : 16:9\nFrame rate                       : 30.000 fps\nColor space                      : YUV\nChroma subsampling               : 4:2:0\nBit depth                        : 8 bits\nScan type                        : Progressive\nCompression mode                 : Lossy\nBits/(Pixel*Frame)               : 0.143\nStream size                      : 594 MiB (85%)\nWriting library                  : XviD 1.1.2 (UTC 2006-11-01)\n\nAudio\nID                               : 1\nFormat                           : MPEG Audio\nFormat version                   : Version 1\nFormat profile                   : Layer 3\nMode                             : Joint stereo\nMode extension                   : MS Stereo\nCodec ID                         : 55\nCodec ID/Hint                    : MP3\nDuration                         : 1h 25mn\nBit rate mode                    : Constant\nBit rate                         : 160 Kbps\nChannel(s)                       : 2 channels\nSampling rate                    : 48.0 KHz\nCompression mode                 : Lossy\nStream size                      : 98.0 MiB (14%)\nAlignment                        : Split accross interleaves\nInterleave, duration             : 24 ms (0.72 video frame)\n\n","torrent":{"xt":"urn:btih:e4506326b782dbef2cb51c7d67b2c3baa05d92c5","amp;dn":"If.a.Tree.Falls-A.Story.of.the.Earth.Liberation.Front.2011.DVDRi","amp;tr":["udp%3A%2F%2Ftracker.openbittorrent.com%3A80","udp%3A%2F%2Fopen.demonii.com%3A1337","udp%3A%2F%2Ftracker.coppersurfer.tk%3A6969","udp%3A%2F%2Fexodus.desync.com%3A6969"],"infoHash":"e4506326b782dbef2cb51c7d67b2c3baa05d92c5","infoHashBuffer":{"type":"Buffer","data":[228,80,99,38,183,130,219,239,44,181,28,125,103,178,195,186,160,93,146,197]},"announce":[],"urlList":[]}}